<mxfile host="Electron" modified="2023-12-01T13:18:50.184Z" agent="Mozilla/5.0 (Macintosh; Intel Mac OS X 10_15_7) AppleWebKit/537.36 (KHTML, like Gecko) draw.io/22.0.3 Chrome/114.0.5735.289 Electron/25.8.4 Safari/537.36" etag="lNv6Oht2sHnmGb-0woyY" version="22.0.3" type="device">
  <diagram name="Page-1" id="dkTG7h9mUsM3rc9uAfFm">
    <mxGraphModel dx="1468" dy="1171" grid="1" gridSize="10" guides="1" tooltips="1" connect="1" arrows="1" fold="1" page="1" pageScale="1" pageWidth="827" pageHeight="1169" background="#ffffff" math="0" shadow="0">
      <root>
        <mxCell id="0" />
        <mxCell id="1" parent="0" />
        <mxCell id="vWDWO8VQ49W0heAviR7H-1" value="START" style="strokeWidth=2;html=1;shape=mxgraph.flowchart.start_1;whiteSpace=wrap;align=center;" parent="1" vertex="1">
          <mxGeometry x="300.94" y="265" width="140" height="80" as="geometry" />
        </mxCell>
        <mxCell id="vWDWO8VQ49W0heAviR7H-3" value="Display menu &amp;amp; Get Input from&lt;br&gt;displayMenu()" style="rounded=1;whiteSpace=wrap;html=1;absoluteArcSize=1;arcSize=14;strokeWidth=2;align=center;" parent="1" vertex="1">
          <mxGeometry x="310.94" y="461" width="120" height="60" as="geometry" />
        </mxCell>
        <mxCell id="vWDWO8VQ49W0heAviR7H-15" value="" style="edgeStyle=orthogonalEdgeStyle;rounded=0;orthogonalLoop=1;jettySize=auto;html=1;" parent="1" source="vWDWO8VQ49W0heAviR7H-7" target="vWDWO8VQ49W0heAviR7H-8" edge="1">
          <mxGeometry relative="1" as="geometry" />
        </mxCell>
        <mxCell id="vWDWO8VQ49W0heAviR7H-7" value="Invalid Input&lt;br&gt;Display Error" style="rounded=1;whiteSpace=wrap;html=1;absoluteArcSize=1;arcSize=14;strokeWidth=2;align=center;" parent="1" vertex="1">
          <mxGeometry x="96.94" y="544" width="120" height="40" as="geometry" />
        </mxCell>
        <mxCell id="vWDWO8VQ49W0heAviR7H-16" value="" style="edgeStyle=orthogonalEdgeStyle;rounded=0;orthogonalLoop=1;jettySize=auto;html=1;" parent="1" source="vWDWO8VQ49W0heAviR7H-8" target="vWDWO8VQ49W0heAviR7H-9" edge="1">
          <mxGeometry relative="1" as="geometry" />
        </mxCell>
        <mxCell id="vWDWO8VQ49W0heAviR7H-18" value="Valid Input" style="edgeLabel;html=1;align=center;verticalAlign=middle;resizable=0;points=[];" parent="vWDWO8VQ49W0heAviR7H-16" vertex="1" connectable="0">
          <mxGeometry x="-0.1112" y="-1" relative="1" as="geometry">
            <mxPoint as="offset" />
          </mxGeometry>
        </mxCell>
        <mxCell id="vWDWO8VQ49W0heAviR7H-8" value="Get Input Valid" style="rounded=1;whiteSpace=wrap;html=1;absoluteArcSize=1;arcSize=14;strokeWidth=2;align=center;" parent="1" vertex="1">
          <mxGeometry x="96.94" y="625" width="120" height="40" as="geometry" />
        </mxCell>
        <mxCell id="wiYFpXB3CsFn-2DpXEMQ-5" value="" style="edgeStyle=orthogonalEdgeStyle;rounded=0;orthogonalLoop=1;jettySize=auto;html=1;" edge="1" parent="1" source="vWDWO8VQ49W0heAviR7H-9" target="vWDWO8VQ49W0heAviR7H-28">
          <mxGeometry relative="1" as="geometry" />
        </mxCell>
        <mxCell id="vWDWO8VQ49W0heAviR7H-9" value="Switch on Choice&lt;br&gt;(choice)" style="rounded=1;whiteSpace=wrap;html=1;absoluteArcSize=1;arcSize=14;strokeWidth=2;align=center;" parent="1" vertex="1">
          <mxGeometry x="310.94" y="625" width="120" height="40" as="geometry" />
        </mxCell>
        <mxCell id="vWDWO8VQ49W0heAviR7H-10" value="" style="endArrow=classic;html=1;rounded=0;entryX=0.5;entryY=0;entryDx=0;entryDy=0;exitX=0.5;exitY=1;exitDx=0;exitDy=0;exitPerimeter=0;" parent="1" source="vWDWO8VQ49W0heAviR7H-1" target="vWDWO8VQ49W0heAviR7H-29" edge="1">
          <mxGeometry width="50" height="50" relative="1" as="geometry">
            <mxPoint x="260.94" y="385" as="sourcePoint" />
            <mxPoint x="310.94" y="335" as="targetPoint" />
          </mxGeometry>
        </mxCell>
        <mxCell id="vWDWO8VQ49W0heAviR7H-11" value="" style="endArrow=classic;html=1;rounded=0;entryX=1;entryY=0.5;entryDx=0;entryDy=0;exitX=0;exitY=0.5;exitDx=0;exitDy=0;" parent="1" source="vWDWO8VQ49W0heAviR7H-21" target="vWDWO8VQ49W0heAviR7H-7" edge="1">
          <mxGeometry width="50" height="50" relative="1" as="geometry">
            <mxPoint x="306.94" y="605" as="sourcePoint" />
            <mxPoint x="236.94" y="615" as="targetPoint" />
          </mxGeometry>
        </mxCell>
        <mxCell id="vWDWO8VQ49W0heAviR7H-17" value="Invalid Input" style="edgeLabel;html=1;align=center;verticalAlign=middle;resizable=0;points=[];" parent="vWDWO8VQ49W0heAviR7H-11" vertex="1" connectable="0">
          <mxGeometry x="-0.0943" y="-1" relative="1" as="geometry">
            <mxPoint x="-2" as="offset" />
          </mxGeometry>
        </mxCell>
        <mxCell id="vWDWO8VQ49W0heAviR7H-13" value="" style="endArrow=classic;html=1;rounded=0;entryX=0.5;entryY=0;entryDx=0;entryDy=0;exitX=0.5;exitY=1;exitDx=0;exitDy=0;" parent="1" source="vWDWO8VQ49W0heAviR7H-3" target="vWDWO8VQ49W0heAviR7H-21" edge="1">
          <mxGeometry width="50" height="50" relative="1" as="geometry">
            <mxPoint x="400.94" y="475" as="sourcePoint" />
            <mxPoint x="370.94" y="585.9999999999999" as="targetPoint" />
          </mxGeometry>
        </mxCell>
        <mxCell id="vWDWO8VQ49W0heAviR7H-23" value="" style="edgeStyle=orthogonalEdgeStyle;rounded=0;orthogonalLoop=1;jettySize=auto;html=1;" parent="1" source="vWDWO8VQ49W0heAviR7H-21" target="vWDWO8VQ49W0heAviR7H-9" edge="1">
          <mxGeometry relative="1" as="geometry" />
        </mxCell>
        <mxCell id="vWDWO8VQ49W0heAviR7H-24" value="Valid Input" style="edgeLabel;html=1;align=center;verticalAlign=middle;resizable=0;points=[];" parent="vWDWO8VQ49W0heAviR7H-23" vertex="1" connectable="0">
          <mxGeometry x="-0.3469" relative="1" as="geometry">
            <mxPoint y="2" as="offset" />
          </mxGeometry>
        </mxCell>
        <mxCell id="vWDWO8VQ49W0heAviR7H-21" value="Validate Input&lt;br style=&quot;border-color: var(--border-color);&quot;&gt;(Integer Only)" style="shape=parallelogram;html=1;strokeWidth=2;perimeter=parallelogramPerimeter;whiteSpace=wrap;rounded=1;arcSize=12;size=0.23;" parent="1" vertex="1">
          <mxGeometry x="305.94" y="545" width="130" height="39" as="geometry" />
        </mxCell>
        <mxCell id="wiYFpXB3CsFn-2DpXEMQ-10" value="" style="edgeStyle=orthogonalEdgeStyle;rounded=0;orthogonalLoop=1;jettySize=auto;html=1;" edge="1" parent="1" source="vWDWO8VQ49W0heAviR7H-25" target="vWDWO8VQ49W0heAviR7H-26">
          <mxGeometry relative="1" as="geometry" />
        </mxCell>
        <mxCell id="wiYFpXB3CsFn-2DpXEMQ-13" value="False" style="edgeLabel;html=1;align=center;verticalAlign=middle;resizable=0;points=[];" vertex="1" connectable="0" parent="wiYFpXB3CsFn-2DpXEMQ-10">
          <mxGeometry x="-0.4582" y="-1" relative="1" as="geometry">
            <mxPoint y="-4" as="offset" />
          </mxGeometry>
        </mxCell>
        <mxCell id="wiYFpXB3CsFn-2DpXEMQ-23" value="" style="edgeStyle=orthogonalEdgeStyle;rounded=0;orthogonalLoop=1;jettySize=auto;html=1;" edge="1" parent="1" source="vWDWO8VQ49W0heAviR7H-25">
          <mxGeometry relative="1" as="geometry">
            <mxPoint x="596.94" y="745" as="targetPoint" />
          </mxGeometry>
        </mxCell>
        <mxCell id="wiYFpXB3CsFn-2DpXEMQ-24" value="True" style="edgeLabel;html=1;align=center;verticalAlign=middle;resizable=0;points=[];" vertex="1" connectable="0" parent="wiYFpXB3CsFn-2DpXEMQ-23">
          <mxGeometry x="-0.35" y="-1" relative="1" as="geometry">
            <mxPoint x="3" y="-1" as="offset" />
          </mxGeometry>
        </mxCell>
        <mxCell id="vWDWO8VQ49W0heAviR7H-25" value="case-1&lt;br&gt;Triangle" style="strokeWidth=2;html=1;shape=mxgraph.flowchart.decision;whiteSpace=wrap;" parent="1" vertex="1">
          <mxGeometry x="476.94" y="705" width="80" height="80" as="geometry" />
        </mxCell>
        <mxCell id="wiYFpXB3CsFn-2DpXEMQ-11" value="" style="edgeStyle=orthogonalEdgeStyle;rounded=0;orthogonalLoop=1;jettySize=auto;html=1;" edge="1" parent="1" source="vWDWO8VQ49W0heAviR7H-26" target="vWDWO8VQ49W0heAviR7H-58">
          <mxGeometry relative="1" as="geometry" />
        </mxCell>
        <mxCell id="wiYFpXB3CsFn-2DpXEMQ-14" value="False" style="edgeLabel;html=1;align=center;verticalAlign=middle;resizable=0;points=[];" vertex="1" connectable="0" parent="wiYFpXB3CsFn-2DpXEMQ-11">
          <mxGeometry x="-0.3698" relative="1" as="geometry">
            <mxPoint y="2" as="offset" />
          </mxGeometry>
        </mxCell>
        <mxCell id="wiYFpXB3CsFn-2DpXEMQ-22" value="" style="edgeStyle=orthogonalEdgeStyle;rounded=0;orthogonalLoop=1;jettySize=auto;html=1;" edge="1" parent="1" source="vWDWO8VQ49W0heAviR7H-26">
          <mxGeometry relative="1" as="geometry">
            <mxPoint x="596.94" y="630" as="targetPoint" />
          </mxGeometry>
        </mxCell>
        <mxCell id="wiYFpXB3CsFn-2DpXEMQ-25" value="True" style="edgeLabel;html=1;align=center;verticalAlign=middle;resizable=0;points=[];" vertex="1" connectable="0" parent="wiYFpXB3CsFn-2DpXEMQ-22">
          <mxGeometry x="-0.2276" y="1" relative="1" as="geometry">
            <mxPoint as="offset" />
          </mxGeometry>
        </mxCell>
        <mxCell id="vWDWO8VQ49W0heAviR7H-26" value="case-2&lt;br&gt;Number" style="strokeWidth=2;html=1;shape=mxgraph.flowchart.decision;whiteSpace=wrap;" parent="1" vertex="1">
          <mxGeometry x="476.94" y="590" width="80" height="80" as="geometry" />
        </mxCell>
        <mxCell id="wiYFpXB3CsFn-2DpXEMQ-3" value="" style="edgeStyle=orthogonalEdgeStyle;rounded=0;orthogonalLoop=1;jettySize=auto;html=1;" edge="1" parent="1" source="vWDWO8VQ49W0heAviR7H-28" target="vWDWO8VQ49W0heAviR7H-39">
          <mxGeometry relative="1" as="geometry" />
        </mxCell>
        <mxCell id="wiYFpXB3CsFn-2DpXEMQ-7" value="True" style="edgeLabel;html=1;align=center;verticalAlign=middle;resizable=0;points=[];" vertex="1" connectable="0" parent="wiYFpXB3CsFn-2DpXEMQ-3">
          <mxGeometry x="-0.2625" y="2" relative="1" as="geometry">
            <mxPoint x="-4" as="offset" />
          </mxGeometry>
        </mxCell>
        <mxCell id="wiYFpXB3CsFn-2DpXEMQ-8" value="" style="edgeStyle=orthogonalEdgeStyle;rounded=0;orthogonalLoop=1;jettySize=auto;html=1;" edge="1" parent="1" source="vWDWO8VQ49W0heAviR7H-28" target="vWDWO8VQ49W0heAviR7H-25">
          <mxGeometry relative="1" as="geometry" />
        </mxCell>
        <mxCell id="wiYFpXB3CsFn-2DpXEMQ-9" value="False" style="edgeLabel;html=1;align=center;verticalAlign=middle;resizable=0;points=[];" vertex="1" connectable="0" parent="wiYFpXB3CsFn-2DpXEMQ-8">
          <mxGeometry x="0.0916" relative="1" as="geometry">
            <mxPoint x="-6" as="offset" />
          </mxGeometry>
        </mxCell>
        <mxCell id="vWDWO8VQ49W0heAviR7H-28" value="case-0&lt;br&gt;Exit" style="strokeWidth=2;html=1;shape=mxgraph.flowchart.decision;whiteSpace=wrap;" parent="1" vertex="1">
          <mxGeometry x="330.44" y="705" width="81" height="80" as="geometry" />
        </mxCell>
        <mxCell id="vWDWO8VQ49W0heAviR7H-30" value="" style="edgeStyle=orthogonalEdgeStyle;rounded=0;orthogonalLoop=1;jettySize=auto;html=1;" parent="1" source="vWDWO8VQ49W0heAviR7H-29" target="vWDWO8VQ49W0heAviR7H-3" edge="1">
          <mxGeometry relative="1" as="geometry" />
        </mxCell>
        <mxCell id="vWDWO8VQ49W0heAviR7H-31" value="Y" style="edgeLabel;html=1;align=center;verticalAlign=middle;resizable=0;points=[];" parent="vWDWO8VQ49W0heAviR7H-30" vertex="1" connectable="0">
          <mxGeometry x="-0.1864" y="-1" relative="1" as="geometry">
            <mxPoint y="-4" as="offset" />
          </mxGeometry>
        </mxCell>
        <mxCell id="vWDWO8VQ49W0heAviR7H-29" value="Show Menu?&lt;br&gt;Y/N" style="rounded=1;whiteSpace=wrap;html=1;absoluteArcSize=1;arcSize=14;strokeWidth=2;align=center;" parent="1" vertex="1">
          <mxGeometry x="310.94" y="385" width="120" height="40" as="geometry" />
        </mxCell>
        <mxCell id="vWDWO8VQ49W0heAviR7H-39" value="&lt;div style=&quot;border-color: var(--border-color); font-family: Menlo, Monaco, &amp;quot;Courier New&amp;quot;, monospace; line-height: 18px;&quot;&gt;&lt;/div&gt;END" style="strokeWidth=2;html=1;shape=mxgraph.flowchart.start_1;whiteSpace=wrap;align=center;strokeColor=default;fontColor=default;labelBackgroundColor=none;" parent="1" vertex="1">
          <mxGeometry x="302.94" y="825" width="136" height="80" as="geometry" />
        </mxCell>
        <mxCell id="vWDWO8VQ49W0heAviR7H-40" style="rounded=0;orthogonalLoop=1;jettySize=auto;html=1;entryX=0;entryY=0.5;entryDx=0;entryDy=0;entryPerimeter=0;exitX=0;exitY=0.5;exitDx=0;exitDy=0;edgeStyle=orthogonalEdgeStyle;" parent="1" source="vWDWO8VQ49W0heAviR7H-29" target="vWDWO8VQ49W0heAviR7H-39" edge="1">
          <mxGeometry relative="1" as="geometry">
            <mxPoint x="566.94" y="415" as="sourcePoint" />
            <mxPoint x="576.94" y="1005" as="targetPoint" />
            <Array as="points">
              <mxPoint x="76.94" y="405" />
              <mxPoint x="76.94" y="865" />
            </Array>
          </mxGeometry>
        </mxCell>
        <mxCell id="vWDWO8VQ49W0heAviR7H-41" value="N" style="edgeLabel;html=1;align=center;verticalAlign=middle;resizable=0;points=[];" parent="vWDWO8VQ49W0heAviR7H-40" vertex="1" connectable="0">
          <mxGeometry x="-0.8426" relative="1" as="geometry">
            <mxPoint as="offset" />
          </mxGeometry>
        </mxCell>
        <mxCell id="vWDWO8VQ49W0heAviR7H-43" value="N" style="edgeLabel;html=1;align=center;verticalAlign=middle;resizable=0;points=[];" parent="vWDWO8VQ49W0heAviR7H-40" vertex="1" connectable="0">
          <mxGeometry x="0.0086" relative="1" as="geometry">
            <mxPoint as="offset" />
          </mxGeometry>
        </mxCell>
        <mxCell id="vWDWO8VQ49W0heAviR7H-44" value="N" style="edgeLabel;html=1;align=center;verticalAlign=middle;resizable=0;points=[];" parent="vWDWO8VQ49W0heAviR7H-40" vertex="1" connectable="0">
          <mxGeometry x="0.8459" y="3" relative="1" as="geometry">
            <mxPoint y="3" as="offset" />
          </mxGeometry>
        </mxCell>
        <mxCell id="wiYFpXB3CsFn-2DpXEMQ-4" value="" style="edgeStyle=orthogonalEdgeStyle;rounded=0;orthogonalLoop=1;jettySize=auto;html=1;exitX=0;exitY=0.5;exitDx=0;exitDy=0;exitPerimeter=0;" edge="1" parent="1" source="vWDWO8VQ49W0heAviR7H-52" target="vWDWO8VQ49W0heAviR7H-29">
          <mxGeometry relative="1" as="geometry">
            <Array as="points">
              <mxPoint x="466.94" y="405" />
              <mxPoint x="466.94" y="405" />
            </Array>
          </mxGeometry>
        </mxCell>
        <mxCell id="wiYFpXB3CsFn-2DpXEMQ-28" value="True" style="edgeLabel;html=1;align=center;verticalAlign=middle;resizable=0;points=[];" vertex="1" connectable="0" parent="wiYFpXB3CsFn-2DpXEMQ-4">
          <mxGeometry x="-0.1853" relative="1" as="geometry">
            <mxPoint x="-1" y="-1" as="offset" />
          </mxGeometry>
        </mxCell>
        <mxCell id="vWDWO8VQ49W0heAviR7H-52" value="default&lt;br&gt;Invalid&lt;br&gt;Menu" style="strokeWidth=2;html=1;shape=mxgraph.flowchart.decision;whiteSpace=wrap;" parent="1" vertex="1">
          <mxGeometry x="476.44" y="365" width="81" height="80" as="geometry" />
        </mxCell>
        <mxCell id="wiYFpXB3CsFn-2DpXEMQ-12" value="" style="edgeStyle=orthogonalEdgeStyle;rounded=0;orthogonalLoop=1;jettySize=auto;html=1;" edge="1" parent="1" source="vWDWO8VQ49W0heAviR7H-58" target="vWDWO8VQ49W0heAviR7H-52">
          <mxGeometry relative="1" as="geometry" />
        </mxCell>
        <mxCell id="wiYFpXB3CsFn-2DpXEMQ-15" value="False" style="edgeLabel;html=1;align=center;verticalAlign=middle;resizable=0;points=[];" vertex="1" connectable="0" parent="wiYFpXB3CsFn-2DpXEMQ-12">
          <mxGeometry x="0.1548" relative="1" as="geometry">
            <mxPoint as="offset" />
          </mxGeometry>
        </mxCell>
        <mxCell id="wiYFpXB3CsFn-2DpXEMQ-21" value="" style="edgeStyle=orthogonalEdgeStyle;rounded=0;orthogonalLoop=1;jettySize=auto;html=1;" edge="1" parent="1" source="vWDWO8VQ49W0heAviR7H-58">
          <mxGeometry relative="1" as="geometry">
            <mxPoint x="596.94" y="517.0000000000001" as="targetPoint" />
          </mxGeometry>
        </mxCell>
        <mxCell id="wiYFpXB3CsFn-2DpXEMQ-26" value="True" style="edgeLabel;html=1;align=center;verticalAlign=middle;resizable=0;points=[];" vertex="1" connectable="0" parent="wiYFpXB3CsFn-2DpXEMQ-21">
          <mxGeometry x="-0.193" relative="1" as="geometry">
            <mxPoint as="offset" />
          </mxGeometry>
        </mxCell>
        <mxCell id="vWDWO8VQ49W0heAviR7H-58" value="case-3&lt;br&gt;LoopSum&lt;br&gt;Avg" style="strokeWidth=2;html=1;shape=mxgraph.flowchart.decision;whiteSpace=wrap;" parent="1" vertex="1">
          <mxGeometry x="476.44" y="477" width="81" height="80" as="geometry" />
        </mxCell>
        <mxCell id="wiYFpXB3CsFn-2DpXEMQ-39" value="" style="edgeStyle=orthogonalEdgeStyle;rounded=0;orthogonalLoop=1;jettySize=auto;html=1;" edge="1" parent="1" source="wiYFpXB3CsFn-2DpXEMQ-30" target="wiYFpXB3CsFn-2DpXEMQ-37">
          <mxGeometry relative="1" as="geometry" />
        </mxCell>
        <mxCell id="wiYFpXB3CsFn-2DpXEMQ-30" value="Number To Words" style="rounded=1;whiteSpace=wrap;html=1;absoluteArcSize=1;arcSize=14;strokeWidth=2;" vertex="1" parent="1">
          <mxGeometry x="596.94" y="609.5" width="120" height="41" as="geometry" />
        </mxCell>
        <mxCell id="wiYFpXB3CsFn-2DpXEMQ-38" value="" style="edgeStyle=orthogonalEdgeStyle;rounded=0;orthogonalLoop=1;jettySize=auto;html=1;" edge="1" parent="1" source="wiYFpXB3CsFn-2DpXEMQ-32" target="wiYFpXB3CsFn-2DpXEMQ-35">
          <mxGeometry relative="1" as="geometry" />
        </mxCell>
        <mxCell id="wiYFpXB3CsFn-2DpXEMQ-32" value="Looping&lt;br style=&quot;border-color: var(--border-color);&quot;&gt;Sum &amp;amp; Average" style="rounded=1;whiteSpace=wrap;html=1;absoluteArcSize=1;arcSize=14;strokeWidth=2;" vertex="1" parent="1">
          <mxGeometry x="596.94" y="496.5" width="120" height="41" as="geometry" />
        </mxCell>
        <mxCell id="wiYFpXB3CsFn-2DpXEMQ-40" value="" style="edgeStyle=orthogonalEdgeStyle;rounded=0;orthogonalLoop=1;jettySize=auto;html=1;" edge="1" parent="1" source="wiYFpXB3CsFn-2DpXEMQ-33" target="wiYFpXB3CsFn-2DpXEMQ-36">
          <mxGeometry relative="1" as="geometry" />
        </mxCell>
        <mxCell id="wiYFpXB3CsFn-2DpXEMQ-33" value="Triangle Determiner" style="rounded=1;whiteSpace=wrap;html=1;absoluteArcSize=1;arcSize=14;strokeWidth=2;" vertex="1" parent="1">
          <mxGeometry x="596.94" y="724.5" width="120" height="41" as="geometry" />
        </mxCell>
        <mxCell id="wiYFpXB3CsFn-2DpXEMQ-59" style="edgeStyle=orthogonalEdgeStyle;rounded=0;orthogonalLoop=1;jettySize=auto;html=1;exitX=1;exitY=0.5;exitDx=0;exitDy=0;" edge="1" parent="1" source="wiYFpXB3CsFn-2DpXEMQ-35">
          <mxGeometry relative="1" as="geometry">
            <mxPoint x="750.94" y="574" as="targetPoint" />
            <mxPoint x="695.94" y="574" as="sourcePoint" />
          </mxGeometry>
        </mxCell>
        <mxCell id="wiYFpXB3CsFn-2DpXEMQ-35" value="break" style="rounded=1;whiteSpace=wrap;html=1;absoluteArcSize=1;arcSize=14;strokeWidth=2;" vertex="1" parent="1">
          <mxGeometry x="621.94" y="559" width="70" height="30" as="geometry" />
        </mxCell>
        <mxCell id="wiYFpXB3CsFn-2DpXEMQ-36" value="break" style="rounded=1;whiteSpace=wrap;html=1;absoluteArcSize=1;arcSize=14;strokeWidth=2;" vertex="1" parent="1">
          <mxGeometry x="621.94" y="785" width="70" height="30" as="geometry" />
        </mxCell>
        <mxCell id="wiYFpXB3CsFn-2DpXEMQ-60" style="edgeStyle=orthogonalEdgeStyle;rounded=0;orthogonalLoop=1;jettySize=auto;html=1;exitX=1;exitY=0.5;exitDx=0;exitDy=0;" edge="1" parent="1" source="wiYFpXB3CsFn-2DpXEMQ-37">
          <mxGeometry relative="1" as="geometry">
            <mxPoint x="750.94" y="688" as="targetPoint" />
            <mxPoint x="695.94" y="688" as="sourcePoint" />
          </mxGeometry>
        </mxCell>
        <mxCell id="wiYFpXB3CsFn-2DpXEMQ-37" value="break" style="rounded=1;whiteSpace=wrap;html=1;absoluteArcSize=1;arcSize=14;strokeWidth=2;" vertex="1" parent="1">
          <mxGeometry x="621.94" y="673" width="70" height="30" as="geometry" />
        </mxCell>
        <mxCell id="wiYFpXB3CsFn-2DpXEMQ-55" value="" style="endArrow=classic;html=1;rounded=0;exitX=1;exitY=0.5;exitDx=0;exitDy=0;edgeStyle=orthogonalEdgeStyle;endFill=1;" edge="1" parent="1" source="wiYFpXB3CsFn-2DpXEMQ-36">
          <mxGeometry width="50" height="50" relative="1" as="geometry">
            <mxPoint x="695.94" y="800" as="sourcePoint" />
            <mxPoint x="370.94" y="357" as="targetPoint" />
            <Array as="points">
              <mxPoint x="750.94" y="800" />
              <mxPoint x="750.94" y="357" />
            </Array>
          </mxGeometry>
        </mxCell>
      </root>
    </mxGraphModel>
  </diagram>
</mxfile>
